<?xml version="1.0" encoding="utf-8"?>
<!-- Generator: Adobe Illustrator 26.1.0, SVG Export Plug-In . SVG Version: 6.00 Build 0)  -->
<svg version="1.1" id="Calque_1" xmlns="http://www.w3.org/2000/svg" xmlns:xlink="http://www.w3.org/1999/xlink" x="0px" y="0px"
	 viewBox="0 0 1348.5 950" style="enable-background:new 0 0 1348.5 950;" xml:space="preserve">
<style type="text/css">
	.st0{fill:#FCE49C;}
	.st1{fill:#42B96A;}
</style>
<path class="st0" d="M762.8,115.3c-49-159.5-220-132.5-358.4-45C239.9,174.3,175.7,28.4-8.6,159.7
	c-184.3,131.2-216.8,565.5-135.8,686.4c80.4,139.6,205.9,111.3,351.9,70.8c146.1-40.5,241.3,54,418.2-170.5
	C754.7,582.8,843.9,379,762.8,115.3z"/>
<path class="st1" d="M358.8-238.1c-136.1,107.4-45.7,263,91,364.1c162.7,120.3,45.4,237.4,241.8,366.6s629.3-2.4,716-126.4
	c105-130.4,30.5-241.3-63.6-367.5c-94.1-126.3-38.3-254-322.3-341.1C814.9-405.8,583.9-415.7,358.8-238.1z"/>
</svg>
